SplineFontDB: 3.2
FontName: MEh-1.8
FullName: MEh 1.8
FamilyName: MEh
Weight: Regular
Copyright: Copyright (c) 2019, Waldemar
UComments: "2019-10-29: Created with FontForge (http://fontforge.org)"
Version: 1.8
ItalicAngle: 0
UnderlinePosition: -100
UnderlineWidth: 50
Ascent: 800
Descent: 200
InvalidEm: 0
LayerCount: 2
Layer: 0 0 "+BBcEMAQ0BD0EOAQ5 +BD8EOwQwBD0A" 1
Layer: 1 0 "+BB8ENQRABDUENAQ9BDgEOQAA +BD8EOwQwBD0A" 0
XUID: [1021 370 2045899877 19757]
StyleMap: 0x0000
FSType: 0
OS2Version: 0
OS2_WeightWidthSlopeOnly: 0
OS2_UseTypoMetrics: 1
CreationTime: 1572353847
ModificationTime: 1572365981
PfmFamily: 17
TTFWeight: 400
TTFWidth: 5
LineGap: 90
VLineGap: 0
OS2TypoAscent: 0
OS2TypoAOffset: 1
OS2TypoDescent: 0
OS2TypoDOffset: 1
OS2TypoLinegap: 90
OS2WinAscent: 0
OS2WinAOffset: 1
OS2WinDescent: 0
OS2WinDOffset: 1
HheadAscent: 0
HheadAOffset: 1
HheadDescent: 0
HheadDOffset: 1
OS2Vendor: 'PfEd'
MarkAttachClasses: 1
DEI: 91125
LangName: 1033
Encoding: ISO8859-1
UnicodeInterp: none
NameList: AGL For New Fonts
DisplaySize: -48
AntiAlias: 1
FitToEm: 0
WinInfo: 0 21 13
BeginPrivate: 0
EndPrivate
TeXData: 1 0 0 1048576 524288 349525 416643 1048576 349525 783286 444596 497025 792723 393216 433062 380633 303038 157286 324010 404750 52429 2506097 1059062 262144
BeginChars: 256 256

StartChar: F
Encoding: 70 70 0
Width: 1000
VWidth: 0
Flags: H
LayerCount: 2
Fore
SplineSet
117 593 m 0
 133 593 149 584 178 561 c 0
 188 554 199 547 209 540 c 0
 279 482 409 434 500 434 c 0
 601 434 743 492 816 563 c 1
 843.17629899 583.23766946 863.665850792 592.776543422 882.494982069 592.776543422 c 0
 896.229857038 592.776543422 909.081231205 587.700960069 923 578 c 0
 943.084813418 564.027955883 960.119345324 530.229081934 960.119345324 507.235545679 c 0
 960.119345324 503.898175949 959.760483456 500.788439339 959 498 c 0
 952 471 863 402 785 363 c 0
 698.993203928 319.64120198 589.240287946 295.986631121 487.344001649 295.986631121 c 0
 445.885911256 295.986631121 405.728404123 299.902399091 369 308 c 0
 206 343 54 434 41 503 c 0
 40.2012084206 507.393353687 39.8100713887 511.768983263 39.8100713887 516.091494052 c 0
 39.8100713887 544.236857741 56.3933536866 570.130110878 85 584 c 0
 97 590 107 593 117 593 c 0
117 304 m 0
 133 304 149 294 179 272 c 0
 189 264 199 257 209 250 c 0
 279 192 409 145 500 145 c 0
 602 145 743 202 816 274 c 1
 843.433997389 293.845870452 864.394540708 303.470497634 883.455686628 303.470497634 c 0
 897.050148474 303.470497634 909.678466308 298.574852341 923 289 c 0
 943.084813418 274.154703126 960.119345324 241.007717175 960.119345324 218.19345962 c 0
 960.119345324 214.882111085 959.760483456 211.788439339 959 209 c 0
 953 182 863 112 785 73 c 0
 698.436822588 30.0761103743 588.331096891 6.60041281044 485.804456332 6.60041281044 c 0
 445.017001007 6.60041281044 405.429035465 10.3157503316 369 18 c 0
 206 53 54 144 41 214 c 0
 40.2293800299 218.238409835 39.8546634854 222.460323695 39.8546634854 226.633961257 c 0
 39.8546634854 254.95601073 57.1099731738 281.054986587 85 295 c 0
 98 301 107 304 117 304 c 0
EndSplineSet
Validated: 1
EndChar

StartChar: f
Encoding: 102 102 1
Width: 1000
VWidth: 0
Flags: HW
LayerCount: 2
Fore
SplineSet
117 593 m 0
 133 593 149 584 178 561 c 0
 188 554 199 547 209 540 c 0
 279 482 409 434 500 434 c 0
 601 434 743 492 816 563 c 1
 843.17629899 583.23766946 863.665850792 592.776543422 882.494982069 592.776543422 c 0
 896.229857038 592.776543422 909.081231205 587.700960069 923 578 c 0
 943.084813418 564.027955883 960.119345324 530.229081934 960.119345324 507.235545679 c 0
 960.119345324 503.898175949 959.760483456 500.788439339 959 498 c 0
 952 471 863 402 785 363 c 0
 698.993203928 319.64120198 589.240287946 295.986631121 487.344001649 295.986631121 c 0
 445.885911256 295.986631121 405.728404123 299.902399091 369 308 c 0
 206 343 54 434 41 503 c 0
 40.2012084206 507.393353687 39.8100713887 511.768983263 39.8100713887 516.091494052 c 0
 39.8100713887 544.236857741 56.3933536866 570.130110878 85 584 c 0
 97 590 107 593 117 593 c 0
117 304 m 0
 133 304 149 294 179 272 c 0
 189 264 199 257 209 250 c 0
 279 192 409 145 500 145 c 0
 602 145 743 202 816 274 c 1
 843.433997389 293.845870452 864.394540708 303.470497634 883.455686628 303.470497634 c 0
 897.050148474 303.470497634 909.678466308 298.574852341 923 289 c 0
 943.084813418 274.154703126 960.119345324 241.007717175 960.119345324 218.19345962 c 0
 960.119345324 214.882111085 959.760483456 211.788439339 959 209 c 0
 953 182 863 112 785 73 c 0
 698.436822588 30.0761103743 588.331096891 6.60041281044 485.804456332 6.60041281044 c 0
 445.017001007 6.60041281044 405.429035465 10.3157503316 369 18 c 0
 206 53 54 144 41 214 c 0
 40.2293800299 218.238409835 39.8546634854 222.460323695 39.8546634854 226.633961257 c 0
 39.8546634854 254.95601073 57.1099731738 281.054986587 85 295 c 0
 98 301 107 304 117 304 c 0
EndSplineSet
Validated: 1
EndChar

StartChar: G
Encoding: 71 71 2
Width: 1000
VWidth: 0
Flags: H
HStem: 549 164<489.401 681.693>
LayerCount: 2
Fore
SplineSet
337 -101 m 0
 169 -51 53 79 53 250 c 0
 53 324 61 380 97 448 c 0
 180 608 328 713 506 713 c 0
 642 713 764 677 866 585 c 0
 894 561 948 490 948 480 c 0
 948 475 936 474 917 477 c 0
 890 480 865 489 795 520 c 0
 747 541 700 549 626 549 c 0
 551 549 538 547 509 537 c 0
 404 498 329 420 305 324 c 0
 301.270394099 308.595106061 299.486604934 292.822084632 299.486604934 277.022046386 c 0
 299.486604934 195.3852805 347.107639712 113.027258533 420 77 c 0
 441.03468324 66.7163770828 466.22082331 61.6766996351 490.758121693 61.6766996351 c 0
 518.714051501 61.6766996351 545.827746592 68.2184977279 565 81 c 0
 603 106 621 129 629 161 c 0
 631.554907054 170.672148135 632.777661036 180.177777136 632.777661036 189.322399729 c 0
 632.777661036 230.287121067 608.24031867 264.007426971 569 273 c 0
 565.139482355 273.90078745 561.262405159 274.321347903 557.451875385 274.321347903 c 0
 534.520995106 274.321347903 514.000031194 259.091373746 514.000031194 241.634228797 c 0
 514.000031194 239.44921161 514.321516432 237.229303152 515 235 c 0
 518 228 524 221 528 221 c 0
 540.178204708 221 547.737800319 212.275960593 547.737800319 201.07747812 c 0
 547.737800319 196.643590584 546.552715155 191.821795292 544 187 c 0
 540 179 533 170 529 168 c 0
 523.645011653 164.206883254 516.647133192 162.504717565 508.850584266 162.504717565 c 0
 481.704540958 162.504717565 444.876256798 183.139984462 434 208 c 0
 427.724840317 223.592821032 424.77634902 239.547236453 424.77634902 255.161899662 c 0
 424.77634902 321.662100758 478.255009988 382 556 382 c 0
 613 382 648 375 689 338 c 0
 740 293 763 245 763 179 c 0
 763 74 719 -7 626 -64 c 0
 564 -102 530 -114 454 -114 c 0
 398 -114 377 -113 337 -101 c 0
EndSplineSet
Validated: 1
EndChar

StartChar: g
Encoding: 103 103 3
Width: 1000
VWidth: 0
Flags: HW
HStem: 549 164<489.401 681.693>
LayerCount: 2
Fore
SplineSet
337 -101 m 0
 169 -51 53 79 53 250 c 0
 53 324 61 380 97 448 c 0
 180 608 328 713 506 713 c 0
 642 713 764 677 866 585 c 0
 894 561 948 490 948 480 c 0
 948 475 936 474 917 477 c 0
 890 480 865 489 795 520 c 0
 747 541 700 549 626 549 c 0
 551 549 538 547 509 537 c 0
 404 498 329 420 305 324 c 0
 301.270394099 308.595106061 299.486604934 292.822084632 299.486604934 277.022046386 c 0
 299.486604934 195.3852805 347.107639712 113.027258533 420 77 c 0
 441.03468324 66.7163770828 466.22082331 61.6766996351 490.758121693 61.6766996351 c 0
 518.714051501 61.6766996351 545.827746592 68.2184977279 565 81 c 0
 603 106 621 129 629 161 c 0
 631.554907054 170.672148135 632.777661036 180.177777136 632.777661036 189.322399729 c 0
 632.777661036 230.287121067 608.24031867 264.007426971 569 273 c 0
 565.139482355 273.90078745 561.262405159 274.321347903 557.451875385 274.321347903 c 0
 534.520995106 274.321347903 514.000031194 259.091373746 514.000031194 241.634228797 c 0
 514.000031194 239.44921161 514.321516432 237.229303152 515 235 c 0
 518 228 524 221 528 221 c 0
 540.178204708 221 547.737800319 212.275960593 547.737800319 201.07747812 c 0
 547.737800319 196.643590584 546.552715155 191.821795292 544 187 c 0
 540 179 533 170 529 168 c 0
 523.645011653 164.206883254 516.647133192 162.504717565 508.850584266 162.504717565 c 0
 481.704540958 162.504717565 444.876256798 183.139984462 434 208 c 0
 427.724840317 223.592821032 424.77634902 239.547236453 424.77634902 255.161899662 c 0
 424.77634902 321.662100758 478.255009988 382 556 382 c 0
 613 382 648 375 689 338 c 0
 740 293 763 245 763 179 c 0
 763 74 719 -7 626 -64 c 0
 564 -102 530 -114 454 -114 c 0
 398 -114 377 -113 337 -101 c 0
EndSplineSet
Validated: 1
EndChar

StartChar: H
Encoding: 72 72 4
Width: 1000
VWidth: 0
Flags: H
LayerCount: 2
Fore
SplineSet
272 322 m 16
 268.538461538 327.769230769 267.207100592 335.721893491 267.207100592 344.5430132 c 0
 267.207100592 373.946745562 282 413 282 413 c 1
 358.16399969 458.817406064 431.14143971 481.620770064 496.929436844 481.620770064 c 0
 541.703695728 481.620770064 583.14784353 471.058375126 620 450 c 0
 713.316204541 395.876601366 755.158961705 293.375902565 755.158961705 191.855190941 c 0
 755.158961705 130.18766727 739.719789699 68.8817400036 711 19 c 0
 665.874926792 -59.0541806847 587.654852003 -106.244483491 490.398641545 -106.244483491 c 0
 428.165701909 -106.244483491 358.138325546 -86.922188474 284 -44 c 1
 284 -44 277.333333333 -16 277.333333333 10.0740740741 c 0
 277.333333333 23.1111111111 279 35.6666666667 284 44 c 8
 298 69 358 84 358 84 c 1
 416.198051355 50.220711451 459.654835502 37.4767143129 492.61711292 37.4767143129 c 0
 540.64733544 37.4767143129 566.395422643 64.5350102452 583 93 c 0
 598.540368191 120.195644333 605.473448157 152.630507586 605.473448157 184.621093305 c 0
 605.473448157 243.206596543 582.221349576 300.302085957 546 321 c 0
 533.966974006 328.053842824 517.285398318 333.902506097 494.597946924 333.902506097 c 0
 462.607872417 333.902506097 418.676943057 322.27422029 359 286 c 1
 359 286 286 297 272 322 c 16
EndSplineSet
Validated: 1
EndChar

StartChar: h
Encoding: 104 104 5
Width: 1000
VWidth: 0
Flags: HW
LayerCount: 2
Fore
SplineSet
272 322 m 16
 268.538461538 327.769230769 267.207100592 335.721893491 267.207100592 344.5430132 c 0
 267.207100592 373.946745562 282 413 282 413 c 1
 358.16399969 458.817406064 431.14143971 481.620770064 496.929436844 481.620770064 c 0
 541.703695728 481.620770064 583.14784353 471.058375126 620 450 c 0
 713.316204541 395.876601366 755.158961705 293.375902565 755.158961705 191.855190941 c 0
 755.158961705 130.18766727 739.719789699 68.8817400036 711 19 c 0
 665.874926792 -59.0541806847 587.654852003 -106.244483491 490.398641545 -106.244483491 c 0
 428.165701909 -106.244483491 358.138325546 -86.922188474 284 -44 c 1
 284 -44 277.333333333 -16 277.333333333 10.0740740741 c 0
 277.333333333 23.1111111111 279 35.6666666667 284 44 c 8
 298 69 358 84 358 84 c 1
 416.198051355 50.220711451 459.654835502 37.4767143129 492.61711292 37.4767143129 c 0
 540.64733544 37.4767143129 566.395422643 64.5350102452 583 93 c 0
 598.540368191 120.195644333 605.473448157 152.630507586 605.473448157 184.621093305 c 0
 605.473448157 243.206596543 582.221349576 300.302085957 546 321 c 0
 533.966974006 328.053842824 517.285398318 333.902506097 494.597946924 333.902506097 c 0
 462.607872417 333.902506097 418.676943057 322.27422029 359 286 c 1
 359 286 286 297 272 322 c 16
EndSplineSet
Validated: 1
EndChar

StartChar: R
Encoding: 82 82 6
Width: 1000
VWidth: 0
Flags: H
VStem: 630 140<395.157 530.016>
LayerCount: 2
Fore
SplineSet
76 -96 m 0
 67 -93 62 -87 62 -77 c 0
 62 -68 64 -59 70 -50 c 0
 72 -47 80 -38 86 -31 c 0
 112 -6 142 17 277 113 c 0
 311 137 353 167 370 180 c 2
 403 203 l 1
 398 207 l 2
 353 245 316 282 290 315 c 0
 270 340 251 372.341796875 242 397.341796875 c 0
 233.962616006 419.779493858 229.962703354 442.291009626 229.962703354 464.488873482 c 0
 229.962703354 508.574856826 245.739876988 551.423677985 277 590 c 0
 286 601 308 623 319 632 c 0
 333 643 350 654 367 662 c 0
 398 677 413 683 466 692 c 0
 475.110272543 694.143593539 486.518041717 695.138438763 497.760858054 695.138438763 c 0
 507.497422612 695.138438763 517.110272543 694.392304845 525 693 c 0
 576 684 602 677 633 662 c 0
 651 653 659 648 675 636 c 0
 689 626 713 603 723 590 c 0
 756 549 770 504 770 458 c 0
 770 404 743 352 692 294 c 0
 673 272 634 235 606 210 c 2
 597 203 l 1
 600 202 l 2
 601 201 613 192 626 182 c 0
 649 166 678 145 775 76 c 0
 878 2 916 -28 931 -51 c 0
 936.041666667 -58.7916666667 938.5625 -67.2135416667 938.5625 -74.628833912 c 0
 938.5625 -83.3923611111 935.041666667 -90.75 928 -94 c 0
 923 -96 922 -97 912 -97 c 0
 899 -97 886 -93 865 -86 c 0
 802 -63 684 3 572 78 c 0
 548 94 514 118 503 125 c 2
 500 128 l 1
 479 113 l 2
 362 29 209 -59 135 -86 c 0
 114.753299184 -93.0084733594 96.3258094359 -96.9849282725 84.43971309 -96.9849282725 c 0
 81.0621619012 -96.9849282725 78.2128073785 -96.6638422135 76 -96 c 0
523 299 m 0
 540 314 567 341 579 354 c 0
 616 398 630 434 630 472 c 0
 630 488 627 497 622 509 c 0
 608 538 588 554 547 569 c 0
 534.232161804 575.163783957 519.913620235 578.032323243 504.641762827 578.032323243 c 0
 485.226161165 578.032323243 464.269729261 573.395945761 443 565 c 0
 408 552 391 538 379 513 c 0
 372.484692283 500.620915339 369.365323338 485.270384252 369.365323338 469.160965349 c 0
 369.365323338 460.544892221 370.257653858 451.711730709 372 443 c 0
 381 398 418 349 487 290 c 2
 500 279 l 1
 505 283 l 2
 508 285 516 293 523 299 c 0
EndSplineSet
Validated: 1
EndChar

StartChar: r
Encoding: 114 114 7
Width: 1000
VWidth: 0
Flags: HW
VStem: 630 140<395.157 530.016>
LayerCount: 2
Fore
SplineSet
76 -96 m 0
 67 -93 62 -87 62 -77 c 0
 62 -68 64 -59 70 -50 c 0
 72 -47 80 -38 86 -31 c 0
 112 -6 142 17 277 113 c 0
 311 137 353 167 370 180 c 2
 403 203 l 1
 398 207 l 2
 353 245 316 282 290 315 c 0
 270 340 251 372.341796875 242 397.341796875 c 0
 233.962616006 419.779493858 229.962703354 442.291009626 229.962703354 464.488873482 c 0
 229.962703354 508.574856826 245.739876988 551.423677985 277 590 c 0
 286 601 308 623 319 632 c 0
 333 643 350 654 367 662 c 0
 398 677 413 683 466 692 c 0
 475.110272543 694.143593539 486.518041717 695.138438763 497.760858054 695.138438763 c 0
 507.497422612 695.138438763 517.110272543 694.392304845 525 693 c 0
 576 684 602 677 633 662 c 0
 651 653 659 648 675 636 c 0
 689 626 713 603 723 590 c 0
 756 549 770 504 770 458 c 0
 770 404 743 352 692 294 c 0
 673 272 634 235 606 210 c 2
 597 203 l 1
 600 202 l 2
 601 201 613 192 626 182 c 0
 649 166 678 145 775 76 c 0
 878 2 916 -28 931 -51 c 0
 936.041666667 -58.7916666667 938.5625 -67.2135416667 938.5625 -74.628833912 c 0
 938.5625 -83.3923611111 935.041666667 -90.75 928 -94 c 0
 923 -96 922 -97 912 -97 c 0
 899 -97 886 -93 865 -86 c 0
 802 -63 684 3 572 78 c 0
 548 94 514 118 503 125 c 2
 500 128 l 1
 479 113 l 2
 362 29 209 -59 135 -86 c 0
 114.753299184 -93.0084733594 96.3258094359 -96.9849282725 84.43971309 -96.9849282725 c 0
 81.0621619012 -96.9849282725 78.2128073785 -96.6638422135 76 -96 c 0
523 299 m 0
 540 314 567 341 579 354 c 0
 616 398 630 434 630 472 c 0
 630 488 627 497 622 509 c 0
 608 538 588 554 547 569 c 0
 534.232161804 575.163783957 519.913620235 578.032323243 504.641762827 578.032323243 c 0
 485.226161165 578.032323243 464.269729261 573.395945761 443 565 c 0
 408 552 391 538 379 513 c 0
 372.484692283 500.620915339 369.365323338 485.270384252 369.365323338 469.160965349 c 0
 369.365323338 460.544892221 370.257653858 451.711730709 372 443 c 0
 381 398 418 349 487 290 c 2
 500 279 l 1
 505 283 l 2
 508 285 516 293 523 299 c 0
EndSplineSet
Validated: 1
EndChar

StartChar: S
Encoding: 83 83 8
Width: 1000
VWidth: 0
Flags: H
HStem: 326 246<432.883 570.801>
VStem: 378 247<380.199 517.801>
LayerCount: 2
Fore
SplineSet
502 572 m 0
 570 572 625 517 625 449 c 0
 625 381 570 326 502 326 c 0
 434 326 378 381 378 449 c 0
 378 517 434 572 502 572 c 0
117 326 m 0
 133 326 149 315 179 293 c 0
 189 286 199 278 209 272 c 0
 279 213 409 166 500 166 c 0
 601 166 743 224 816 295 c 1
 843.433997389 314.845870452 864.394540708 324.470497634 883.455686628 324.470497634 c 0
 897.050148474 324.470497634 909.678466308 319.574852341 923 310 c 0
 943.084813418 296.027955883 960.119345324 262.229081934 960.119345324 239.235545679 c 0
 960.119345324 235.898175949 959.760483456 232.788439339 959 230 c 0
 953 203 863 133 785 94 c 0
 698.436822588 51.0761103743 588.331096891 27.6004128104 485.804456332 27.6004128104 c 0
 445.017001007 27.6004128104 405.429035465 31.3157503316 369 39 c 0
 206 75 54 166 41 235 c 0
 40.2012084206 239.393353687 39.8100713887 243.768983263 39.8100713887 248.091494052 c 0
 39.8100713887 276.236857741 56.3933536866 302.130110878 85 316 c 0
 98 322 107 326 117 326 c 0
EndSplineSet
Validated: 1
EndChar

StartChar: s
Encoding: 115 115 9
Width: 1000
VWidth: 0
Flags: HW
HStem: 326 246<432.883 570.801>
VStem: 378 247<380.199 517.801>
LayerCount: 2
Fore
SplineSet
502 572 m 0
 570 572 625 517 625 449 c 0
 625 381 570 326 502 326 c 0
 434 326 378 381 378 449 c 0
 378 517 434 572 502 572 c 0
117 326 m 0
 133 326 149 315 179 293 c 0
 189 286 199 278 209 272 c 0
 279 213 409 166 500 166 c 0
 601 166 743 224 816 295 c 1
 843.433997389 314.845870452 864.394540708 324.470497634 883.455686628 324.470497634 c 0
 897.050148474 324.470497634 909.678466308 319.574852341 923 310 c 0
 943.084813418 296.027955883 960.119345324 262.229081934 960.119345324 239.235545679 c 0
 960.119345324 235.898175949 959.760483456 232.788439339 959 230 c 0
 953 203 863 133 785 94 c 0
 698.436822588 51.0761103743 588.331096891 27.6004128104 485.804456332 27.6004128104 c 0
 445.017001007 27.6004128104 405.429035465 31.3157503316 369 39 c 0
 206 75 54 166 41 235 c 0
 40.2012084206 239.393353687 39.8100713887 243.768983263 39.8100713887 248.091494052 c 0
 39.8100713887 276.236857741 56.3933536866 302.130110878 85 316 c 0
 98 322 107 326 117 326 c 0
EndSplineSet
Validated: 1
EndChar

StartChar: Z
Encoding: 90 90 10
Width: 1000
VWidth: 0
Flags: H
VStem: 340 1<339.347 362.141> 341 67<313.492 385.015> 565 92<339.238 411.469>
LayerCount: 2
Fore
SplineSet
368 31 m 0x20
 260 53 155 99 72 173 c 0
 52 190 39 215 39 241 c 0
 39 253 42 266 49 277 c 0
 63 297 89 317 115 317 c 0
 125 317 135 314 144 307 c 0
 199 271 251 230 314 209 c 0
 368 190 422 169 481 169 c 1
 533 169 586 172 634 193 c 1
 702 214 766 247 822 291 c 0
 839 305 861.730095354 316.451250789 883.370445005 316.451250789 c 0
 896.623822305 316.451250789 909.605363951 312.255172444 921 302 c 0
 942.925268942 285.556048294 961.512222479 259.931729227 961.512222479 232.751361866 c 0
 961.512222479 230.17935454 961.34578851 227.593413823 961 225 c 1
 936 181 891 154 851 125 c 0
 722 39 559 25 405 25 c 0
 392 25 380 28 368 31 c 0x20
340 344 m 0xa0
 340 323 360 309 378 309 c 0
 391 309 403 315 409 328 c 0
 419 363 431 401 464 420 c 0
 474.473623917 426.109613952 485.962958926 428.918166854 497.40911251 428.918166854 c 0
 525.305743457 428.918166854 552.945877961 412.235442085 565 386 c 0
 583 357 586 306 631 306 c 0
 653.617088504 306 660.265414498 325.162515012 660.265414498 345.623375047 c 0
 660.265414498 353.207091173 659.352082499 360.969171003 658 368 c 0
 656 376 654 383 652 390 c 0
 632.044649977 456.251762076 564.303380611 491.920535771 498.108309461 491.920535771 c 0
 481.374402825 491.920535771 464.739307929 489.641077979 449 485 c 0
 385 470 340 409 340 344 c 0xa0
340 344 m 0
 340 409 386 470 449 484 c 0
 464.767777507 488.649472855 481.393720523 490.928774303 498.101303954 490.928774303 c 0
 564.042749978 490.928774303 631.255925836 455.423618518 652 390 c 0
 653 383 656 376 657 368 c 0
 658.367001245 360.891593525 659.285516313 353.110457786 659.285516313 345.555778485 c 0
 659.285516313 325.478151934 652.797992529 307 631 307 c 0
 587 307 584 357 565 386 c 0
 549.907898935 410.434830295 525.002512663 429.704773639 497.33636938 429.704773639 c 0
 486.506281658 429.704773639 475.253140829 426.751884497 464 420 c 0
 430 402 418 363 408 329 c 0x60
 402 316 391 310 378 310 c 0
 360 310 340 324 340 344 c 0
408 329 m 0
 408 329 408 329 408 329 c 0
631 307 m 0
 631 307 631 307 631 307 c 0
340 344 m 0xa0
 340 409 385 470 449 485 c 0
 464.544685372 489.583689276 480.963141183 491.824085102 497.487592843 491.824085102 c 0
 563.879404759 491.824085102 631.982270953 455.658151276 652 390 c 0
 655.555555556 377.555555556 659.703703704 361.160493827 659.703703704 346.082304527 c 0
 659.703703704 327.234567901 653.222222222 310.444444444 631 306 c 1
 586 306 583 357 565 386 c 1
 552.945877961 412.235442085 525.305743457 428.918166854 497.40911251 428.918166854 c 0
 485.962958926 428.918166854 474.473623917 426.109613952 464 420 c 0
 431 401 418 363 408 329 c 0x60
 402.870116953 315.583382799 391.200237436 309.796761479 378.950605864 309.796761479 c 0
 360.157578382 309.796761479 340 323.416617201 340 344 c 0xa0
EndSplineSet
Validated: 5
EndChar

StartChar: z
Encoding: 122 122 11
Width: 1000
VWidth: 0
Flags: HW
VStem: 340 1<339.347 362.141> 341 67<313.492 385.015> 565 92<339.238 411.469>
LayerCount: 2
Fore
SplineSet
368 31 m 0x20
 260 53 155 99 72 173 c 0
 52.3961939805 189.899832775 38.732958396 215.482037725 38.732958396 241.097229882 c 0
 38.732958396 253.374708761 41.8718528424 265.659765886 49 277 c 0
 62.710592363 297.205083482 89.4392140159 316.889445793 115.282831191 316.889445793 c 0
 125.253036885 316.889445793 135.09152398 313.959746891 144 307 c 0
 199 271 251 230 314 209 c 0
 368 190 422 169 481 169 c 1
 533 169 586 172 634 193 c 1
 702 214 766 247 822 291 c 0
 839.365006354 305.264112362 861.730095354 316.451250789 883.370445005 316.451250789 c 0
 896.623822305 316.451250789 909.605363951 312.255172444 921 302 c 0
 942.925268942 285.556048294 961.512222479 259.931729227 961.512222479 232.751361866 c 0
 961.512222479 230.17935454 961.34578851 227.593413823 961 225 c 1
 936 181 891 154 851 125 c 0
 722 39 559 25 405 25 c 0
 392 25 380 28 368 31 c 0x20
340 344 m 0xa0
 340 323 360 309 378 309 c 0
 391 309 403 315 409 328 c 0
 419 363 431 401 464 420 c 0
 474.473623917 426.109613952 485.962958926 428.918166854 497.40911251 428.918166854 c 0
 525.305743457 428.918166854 552.945877961 412.235442085 565 386 c 0
 583 357 586 306 631 306 c 0
 653.617088504 306 660.265414498 325.162515012 660.265414498 345.623375047 c 0
 660.265414498 353.207091173 659.352082499 360.969171003 658 368 c 0
 656 376 654 383 652 390 c 0
 632.044649977 456.251762076 564.303380611 491.920535771 498.108309461 491.920535771 c 0
 481.374402825 491.920535771 464.739307929 489.641077979 449 485 c 0
 385 470 340 409 340 344 c 0xa0
340 344 m 0
 340 409 386 470 449 484 c 0
 464.767777507 488.649472855 481.393720523 490.928774303 498.101303954 490.928774303 c 0
 564.042749978 490.928774303 631.255925836 455.423618518 652 390 c 0
 653 383 656 376 657 368 c 0
 658.367001245 360.891593525 659.285516313 353.110457786 659.285516313 345.555778485 c 0
 659.285516313 325.478151934 652.797992529 307 631 307 c 0
 587 307 584 357 565 386 c 0
 549.907898935 410.434830295 525.002512663 429.704773639 497.33636938 429.704773639 c 0
 486.506281658 429.704773639 475.253140829 426.751884497 464 420 c 0
 430 402 418 363 408 329 c 0x60
 402 316 391 310 378 310 c 0
 360 310 340 324 340 344 c 0
408 329 m 0
 408 329 408 329 408 329 c 0
631 307 m 0
 631 307 631 307 631 307 c 0
340 344 m 0xa0
 340 409 385 470 449 485 c 0
 464.544685372 489.583689276 480.963141183 491.824085102 497.487592843 491.824085102 c 0
 563.879404759 491.824085102 631.982270953 455.658151276 652 390 c 0
 655.555555556 377.555555556 659.703703704 361.160493827 659.703703704 346.082304527 c 0
 659.703703704 327.234567901 653.222222222 310.444444444 631 306 c 1
 586 306 583 357 565 386 c 1
 552.945877961 412.235442085 525.305743457 428.918166854 497.40911251 428.918166854 c 0
 485.962958926 428.918166854 474.473623917 426.109613952 464 420 c 0
 431 401 418 363 408 329 c 0x60
 402.870116953 315.583382799 391.200237436 309.796761479 378.950605864 309.796761479 c 0
 360.157578382 309.796761479 340 323.416617201 340 344 c 0xa0
EndSplineSet
Validated: 5
EndChar

StartChar: C
Encoding: 67 67 12
Width: 1000
VWidth: 0
Flags: H
VStem: 421 157<-94.8868 25.6011>
LayerCount: 2
Fore
SplineSet
118 318 m 0
 136 318 150 302 165 294 c 0
 223 250 288 214 358 193 c 1
 400 174.333333333 445.111111111 171.222222222 490.37037037 171.222222222 c 0
 513 171.222222222 535.666666667 172 558 172 c 0
 608 172 655 201 702 218 c 0
 754 238 797 276 844 305 c 1
 854.611730519 313.290414468 866.433126145 316.852138059 878.297219594 316.852138059 c 0
 902.209665108 316.852138059 926.295564732 302.383119218 941 283 c 0
 952.190792766 270.042239956 960.95322847 251.880857638 960.95322847 234.645606572 c 0
 960.95322847 222.618429397 956.686283584 211.042239956 946 202 c 0
 873 128 779 74 679 46 c 1
 649 32 598 38 578 19 c 1
 578 4.13043478261 579.378071834 -11.5047258979 579.378071834 -26.886907208 c 0
 579.378071834 -50.8147448015 576.043478261 -74.1304347826 559 -93 c 0
 544.813666377 -111.762570276 523.297653087 -120.47300844 501.447935727 -120.47300844 c 0
 475.551614107 -120.47300844 449.186537372 -108.237429724 434 -86 c 0
 421.9 -68.4 419.1775 -48.0775 419.1775 -27.36175 c 0
 419.1775 -10.4125 421 6.8 421 23 c 1
 338 33 256 57 181 97 c 0
 131 128 72 156 44 212 c 0
 40.0681774236 220.578521985 38.2763720533 229.476449523 38.2763720533 238.305612043 c 0
 38.2763720533 278.878875922 76.1146796088 318 118 318 c 0
EndSplineSet
Validated: 1
EndChar

StartChar: c
Encoding: 99 99 13
Width: 1000
VWidth: 0
Flags: HW
VStem: 421 157<-94.8868 25.6011>
LayerCount: 2
Fore
SplineSet
118 318 m 0
 136 318 150 302 165 294 c 0
 223 250 288 214 358 193 c 1
 400 174.333333333 445.111111111 171.222222222 490.37037037 171.222222222 c 0
 513 171.222222222 535.666666667 172 558 172 c 0
 608 172 655 201 702 218 c 0
 754 238 797 276 844 305 c 1
 854.611730519 313.290414468 866.433126145 316.852138059 878.297219594 316.852138059 c 0
 902.209665108 316.852138059 926.295564732 302.383119218 941 283 c 0
 952.190792766 270.042239956 960.95322847 251.880857638 960.95322847 234.645606572 c 0
 960.95322847 222.618429397 956.686283584 211.042239956 946 202 c 0
 873 128 779 74 679 46 c 1
 649 32 598 38 578 19 c 1
 578 4.13043478261 579.378071834 -11.5047258979 579.378071834 -26.886907208 c 0
 579.378071834 -50.8147448015 576.043478261 -74.1304347826 559 -93 c 0
 544.813666377 -111.762570276 523.297653087 -120.47300844 501.447935727 -120.47300844 c 0
 475.551614107 -120.47300844 449.186537372 -108.237429724 434 -86 c 0
 421.9 -68.4 419.1775 -48.0775 419.1775 -27.36175 c 0
 419.1775 -10.4125 421 6.8 421 23 c 1
 338 33 256 57 181 97 c 0
 131 128 72 156 44 212 c 0
 40.0681774236 220.578521985 38.2763720533 229.476449523 38.2763720533 238.305612043 c 0
 38.2763720533 278.878875922 76.1146796088 318 118 318 c 0
EndSplineSet
Validated: 1
EndChar

StartChar: M
Encoding: 77 77 14
Width: 1000
VWidth: 0
Flags: H
HStem: -170 21G<370.5 629.5> 750 20G<370.5 629.5> 750 20G<370.5 629.5>
VStem: 30 940<160.449 439.551>
LayerCount: 2
Fore
SplineSet
500 770 m 0xd0
 759 770 970 559 970 300 c 0
 970 41 759 -170 500 -170 c 0
 241 -170 30 41 30 300 c 0
 30 559 241 770 500 770 c 0xd0
EndSplineSet
Validated: 1
EndChar

StartChar: m
Encoding: 109 109 15
Width: 1000
VWidth: 0
Flags: HW
HStem: -170 21G<370.5 629.5> 750 20G<370.5 629.5> 750 20G<370.5 629.5>
VStem: 30 940<160.449 439.551>
LayerCount: 2
Fore
SplineSet
500 770 m 0xd0
 759 770 970 559 970 300 c 0
 970 41 759 -170 500 -170 c 0
 241 -170 30 41 30 300 c 0
 30 559 241 770 500 770 c 0xd0
EndSplineSet
Validated: 1
EndChar

StartChar: N
Encoding: 78 78 16
Width: 1000
VWidth: 0
Flags: H
HStem: -168 298<417.968 582.032> 470 298<417.968 582.032>
VStem: 32 298<217.968 382.032> 670 298<217.968 382.032>
LayerCount: 2
Fore
SplineSet
500 770 m 0
 759 770 968 559 968 300 c 0
 968 41 759 -168 500 -168 c 0
 241 -168 32 41 32 300 c 0
 32 559 241 770 500 770 c 0
500 470 m 0
 406 470 330 394 330 300 c 0
 330 206 406 130 500 130 c 0
 594 130 670 206 670 300 c 0
 670 394 594 470 500 470 c 0
EndSplineSet
Validated: 1
EndChar

StartChar: n
Encoding: 110 110 17
Width: 1000
VWidth: 0
Flags: HW
HStem: -168 298<417.968 582.032> 470 298<417.968 582.032>
VStem: 32 298<217.968 382.032> 670 298<217.968 382.032>
LayerCount: 2
Fore
SplineSet
500 770 m 0
 759 770 968 559 968 300 c 0
 968 41 759 -168 500 -168 c 0
 241 -168 32 41 32 300 c 0
 32 559 241 770 500 770 c 0
500 470 m 0
 406 470 330 394 330 300 c 0
 330 206 406 130 500 130 c 0
 594 130 670 206 670 300 c 0
 670 394 594 470 500 470 c 0
EndSplineSet
Validated: 1
EndChar

StartChar: A
Encoding: 65 65 18
Width: 1000
VWidth: 0
Flags: H
HStem: -170 21G<340.5 599.5> 750 20G<340.5 599.5> 750 20G<340.5 599.5>
VStem: -0 130<193.236 409.053> 392 153<-32 637> 820 120<191.385 416.767>
LayerCount: 2
Fore
SplineSet
-0 300 m 0xdc
 0 559 211 770 470 770 c 0
 729 770 940 559 940 300 c 0
 940 41 729 -170 470 -170 c 0
 211 -170 -0 41 -0 300 c 0xdc
130 302 m 0
 130 154 247 4 392 -32 c 1
 392 637 l 1
 247 601 130 451 130 302 c 0
545 -35 m 1
 697 -4 820 148 820 302 c 0
 820 458 697 609 545 640 c 1
 545 -35 l 1
EndSplineSet
Validated: 1
EndChar

StartChar: a
Encoding: 97 97 19
Width: 1000
VWidth: 0
Flags: HW
HStem: -170 21G<340.5 599.5> 750 20G<340.5 599.5> 750 20G<340.5 599.5>
VStem: -0 130<193.236 409.053> 392 153<-32 637> 820 120<191.385 416.767>
LayerCount: 2
Fore
SplineSet
-0 300 m 0xdc
 0 559 211 770 470 770 c 0
 729 770 940 559 940 300 c 0
 940 41 729 -170 470 -170 c 0
 211 -170 -0 41 -0 300 c 0xdc
130 302 m 0
 130 154 247 4 392 -32 c 1
 392 637 l 1
 247 601 130 451 130 302 c 0
545 -35 m 1
 697 -4 820 148 820 302 c 0
 820 458 697 609 545 640 c 1
 545 -35 l 1
EndSplineSet
Validated: 1
EndChar

StartChar: E
Encoding: 69 69 20
Width: 1000
VWidth: 0
Flags: H
HStem: -170 120<353.223 589.099> 640 130<353.223 589.099>
VStem: -0 128<179.662 409.686> 818 122<179.662 409.686>
LayerCount: 2
Fore
SplineSet
470 770 m 0
 729 770 940 559 940 300 c 0
 940 41 729 -170 470 -170 c 0
 211 -170 -0 41 -0 300 c 0
 -0 559 211 770 470 770 c 0
472 640 m 0
 282 640 128 485 128 295 c 0
 128 105 282 -50 472 -50 c 0
 663 -50 818 105 818 295 c 0
 818 485 663 640 472 640 c 0
EndSplineSet
Validated: 1
EndChar

StartChar: e
Encoding: 101 101 21
Width: 1000
VWidth: 0
Flags: HW
HStem: -170 120<353.223 589.099> 640 130<353.223 589.099>
VStem: -0 128<179.662 409.686> 818 122<179.662 409.686>
LayerCount: 2
Fore
SplineSet
470 770 m 0
 729 770 940 559 940 300 c 0
 940 41 729 -170 470 -170 c 0
 211 -170 -0 41 -0 300 c 0
 -0 559 211 770 470 770 c 0
472 640 m 0
 282 640 128 485 128 295 c 0
 128 105 282 -50 472 -50 c 0
 663 -50 818 105 818 295 c 0
 818 485 663 640 472 640 c 0
EndSplineSet
Validated: 1
EndChar

StartChar: I
Encoding: 73 73 22
Width: 1000
VWidth: 0
Flags: H
HStem: -170 120<361.385 586.767> 225 153<138 807> 640 130<363.236 579.053>
VStem: -0 940<228.556 371.444>
LayerCount: 2
Fore
SplineSet
470 770 m 0
 729 770 940 559 940 300 c 0
 940 41 729 -170 470 -170 c 0
 211 -170 -0 41 -0 300 c 0
 0 559 211 770 470 770 c 0
472 640 m 0
 324 640 174 523 138 378 c 1
 807 378 l 1
 771 523 621 640 472 640 c 0
135 225 m 1
 166 73 318 -50 472 -50 c 0
 628 -50 779 73 810 225 c 1
 135 225 l 1
EndSplineSet
Validated: 1
EndChar

StartChar: i
Encoding: 105 105 23
Width: 1000
VWidth: 0
Flags: HW
HStem: -170 120<361.385 586.767> 225 153<138 807> 640 130<363.236 579.053>
VStem: -0 940<228.556 371.444>
LayerCount: 2
Fore
SplineSet
470 770 m 0
 729 770 940 559 940 300 c 0
 940 41 729 -170 470 -170 c 0
 211 -170 -0 41 -0 300 c 0
 0 559 211 770 470 770 c 0
472 640 m 0
 324 640 174 523 138 378 c 1
 807 378 l 1
 771 523 621 640 472 640 c 0
135 225 m 1
 166 73 318 -50 472 -50 c 0
 628 -50 779 73 810 225 c 1
 135 225 l 1
EndSplineSet
Validated: 1
EndChar

StartChar: O
Encoding: 79 79 24
Width: 1000
VWidth: 0
Flags: H
HStem: -170 120<353.223 589.099> 61 116<403.348 541.315> 426 113<403.348 541.315> 640 130<353.223 589.099>
VStem: -0 128<179.662 409.686> 231 116<233.348 371.095> 596 113<233.348 371.095> 818 122<179.662 409.686>
LayerCount: 2
Fore
SplineSet
470 539 m 0
 602 539 709 432 709 300 c 0
 709 168 602 61 470 61 c 0
 338 61 231 168 231 300 c 0
 231 432 338 539 470 539 c 0
472 426 m 0
 403 426 347 370 347 302 c 0
 347 233 403 177 472 177 c 0
 541 177 596 233 596 302 c 0
 596 370 541 426 472 426 c 0
470 770 m 0
 729 770 940 559 940 300 c 0
 940 41 729 -170 470 -170 c 0
 211 -170 -0 41 -0 300 c 0
 0 559 211 770 470 770 c 0
472 640 m 0
 282 640 128 485 128 295 c 0
 128 105 282 -50 472 -50 c 0
 663 -50 818 105 818 295 c 0
 818 485 663 640 472 640 c 0
EndSplineSet
Validated: 1
EndChar

StartChar: o
Encoding: 111 111 25
Width: 1000
VWidth: 0
Flags: HW
HStem: -170 120<353.223 589.099> 61 116<403.348 541.315> 426 113<403.348 541.315> 640 130<353.223 589.099>
VStem: -0 128<179.662 409.686> 231 116<233.348 371.095> 596 113<233.348 371.095> 818 122<179.662 409.686>
LayerCount: 2
Fore
SplineSet
470 539 m 0
 602 539 709 432 709 300 c 0
 709 168 602 61 470 61 c 0
 338 61 231 168 231 300 c 0
 231 432 338 539 470 539 c 0
472 426 m 0
 403 426 347 370 347 302 c 0
 347 233 403 177 472 177 c 0
 541 177 596 233 596 302 c 0
 596 370 541 426 472 426 c 0
470 770 m 0
 729 770 940 559 940 300 c 0
 940 41 729 -170 470 -170 c 0
 211 -170 -0 41 -0 300 c 0
 0 559 211 770 470 770 c 0
472 640 m 0
 282 640 128 485 128 295 c 0
 128 105 282 -50 472 -50 c 0
 663 -50 818 105 818 295 c 0
 818 485 663 640 472 640 c 0
EndSplineSet
Validated: 1
EndChar

StartChar: U
Encoding: 85 85 26
Width: 1000
VWidth: 0
Flags: H
HStem: -170 120<353.223 589.099> 180 247<405.199 542.801> 640 130<353.223 589.099>
VStem: -0 128<179.662 409.686> 351 246<234.199 372.557> 818 122<179.662 409.686>
LayerCount: 2
Fore
SplineSet
470 770 m 0
 729 770 940 559 940 300 c 0
 940 41 729 -170 470 -170 c 0
 211 -170 -0 41 -0 300 c 0
 0 559 211 770 470 770 c 0
472 640 m 0
 282 640 128 485 128 295 c 0
 128 105 282 -50 472 -50 c 0
 663 -50 818 105 818 295 c 0
 818 485 663 640 472 640 c 0
474 427 m 0
 542 427 597 372 597 303 c 0
 597 235 542 180 474 180 c 0
 406 180 351 235 351 303 c 0
 351 372 406 427 474 427 c 0
EndSplineSet
Validated: 1
EndChar

StartChar: u
Encoding: 117 117 27
Width: 1000
VWidth: 0
Flags: HW
HStem: -170 120<353.223 589.099> 180 247<405.199 542.801> 640 130<353.223 589.099>
VStem: -0 128<179.662 409.686> 351 246<234.199 372.557> 818 122<179.662 409.686>
LayerCount: 2
Fore
SplineSet
470 770 m 0
 729 770 940 559 940 300 c 0
 940 41 729 -170 470 -170 c 0
 211 -170 -0 41 -0 300 c 0
 0 559 211 770 470 770 c 0
472 640 m 0
 282 640 128 485 128 295 c 0
 128 105 282 -50 472 -50 c 0
 663 -50 818 105 818 295 c 0
 818 485 663 640 472 640 c 0
474 427 m 0
 542 427 597 372 597 303 c 0
 597 235 542 180 474 180 c 0
 406 180 351 235 351 303 c 0
 351 372 406 427 474 427 c 0
EndSplineSet
Validated: 1
EndChar

StartChar: W
Encoding: 87 87 28
Width: 1000
VWidth: 0
HStem: 215 233<432.877 567.123>
VStem: 384 232<263.877 398.896>
LayerCount: 2
Fore
SplineSet
500 448 m 0
 564 448 616 396 616 331 c 0
 616 267 564 215 500 215 c 0
 436 215 384 267 384 331 c 0
 384 396 436 448 500 448 c 0
EndSplineSet
Validated: 1
EndChar

StartChar: w
Encoding: 119 119 29
Width: 1000
VWidth: 0
Flags: W
HStem: 215 233<432.877 567.123>
VStem: 384 232<263.877 398.896>
LayerCount: 2
Fore
SplineSet
500 448 m 0
 564 448 616 396 616 331 c 0
 616 267 564 215 500 215 c 0
 436 215 384 267 384 331 c 0
 384 396 436 448 500 448 c 0
EndSplineSet
Validated: 1
EndChar

StartChar: Y
Encoding: 89 89 30
Width: 1000
VWidth: 0
Flags: H
HStem: 257 140
LayerCount: 2
Fore
SplineSet
130 331 m 24
 130 363 179 397.341796875 179 397.341796875 c 1
 821 397.341796875 l 1
 821 397.341796875 868 359 868 325 c 24
 868 293 821 257 821 257 c 1
 179 257 l 1
 179 257 130 297 130 331 c 24
179 327 m 0
 393 327 607 327 821 327 c 1024
EndSplineSet
Validated: 3
EndChar

StartChar: y
Encoding: 121 121 31
Width: 1000
VWidth: 0
Flags: HW
HStem: 257 140
LayerCount: 2
Fore
SplineSet
130 331 m 24
 130 363 179 397.341796875 179 397.341796875 c 1
 821 397.341796875 l 1
 821 397.341796875 868 359 868 325 c 24
 868 293 821 257 821 257 c 1
 179 257 l 1
 179 257 130 297 130 331 c 24
179 327 m 0
 393 327 607 327 821 327 c 1024
EndSplineSet
Validated: 3
EndChar

StartChar: P
Encoding: 80 80 32
Width: 1000
VWidth: 0
Flags: H
HStem: -168 116<67.2103 125.176> -166 128<538.859 833> 212 116<67.2103 362.375> 214 128<538.859 832> 744 20G<865 909.5>
VStem: 833 126<-37.2209 216 342 703.749> 833 119<410.866 743.339>
LayerCount: 2
Fore
SplineSet
896 764 m 0x1c
 923 764 952 742 952 715 c 0x1a
 952 475 959 234 959 -6 c 1
 958.093914538 -12.7309205734 957.774251122 -19.8472042054 957.774251122 -27.1992058111 c 0
 957.774251122 -44.8193739014 959.610374431 -63.7934888126 959.610374431 -82.0615097585 c 0
 959.610374431 -115.057695866 953.620105352 -145.750282413 920 -162 c 1
 821 -162 721 -168 622 -168 c 0x5c
 445 -168 269 -168 92 -168 c 0
 58.7231281841 -168 40.6235904425 -137.05014228 40.6235904425 -106.969977883 c 0
 40.6235904425 -81.9100426235 53.1858268383 -57.4537301346 80 -52 c 1x8c
 331 -52 582 -38 833 -38 c 1
 833 47 832 130 832 214 c 1
 764 214 695 212 627 212 c 0x5a
 448 212 270 214 92 214 c 0
 58.7231281841 214 40.6235904425 244.354668149 40.6235904425 273.893831995 c 0
 40.6235904425 298.503056993 53.1858268383 322.546269865 80 328 c 1x2a
 331 328 582 342 833 342 c 1
 833 440 833 538 833 635 c 0
 833 683 834 764 896 764 c 0x1c
EndSplineSet
Validated: 1
EndChar

StartChar: p
Encoding: 112 112 33
Width: 1000
VWidth: 0
Flags: HW
HStem: -168 116<67.2103 125.176> -166 128<538.859 833> 212 116<67.2103 362.375> 214 128<538.859 832> 744 20G<865 909.5>
VStem: 833 126<-37.2209 216 342 703.749> 833 119<410.866 743.339>
LayerCount: 2
Fore
SplineSet
896 764 m 0x1c
 923 764 952 742 952 715 c 0x1a
 952 475 959 234 959 -6 c 1
 958.093914538 -12.7309205734 957.774251122 -19.8472042054 957.774251122 -27.1992058111 c 0
 957.774251122 -44.8193739014 959.610374431 -63.7934888126 959.610374431 -82.0615097585 c 0
 959.610374431 -115.057695866 953.620105352 -145.750282413 920 -162 c 1
 821 -162 721 -168 622 -168 c 0x5c
 445 -168 269 -168 92 -168 c 0
 58.7231281841 -168 40.6235904425 -137.05014228 40.6235904425 -106.969977883 c 0
 40.6235904425 -81.9100426235 53.1858268383 -57.4537301346 80 -52 c 1x8c
 331 -52 582 -38 833 -38 c 1
 833 47 832 130 832 214 c 1
 764 214 695 212 627 212 c 0x5a
 448 212 270 214 92 214 c 0
 58.7231281841 214 40.6235904425 244.354668149 40.6235904425 273.893831995 c 0
 40.6235904425 298.503056993 53.1858268383 322.546269865 80 328 c 1x2a
 331 328 582 342 833 342 c 1
 833 440 833 538 833 635 c 0
 833 683 834 764 896 764 c 0x1c
EndSplineSet
Validated: 1
EndChar

StartChar: T
Encoding: 84 84 34
Width: 1000
VWidth: 0
Flags: H
HStem: -169 117<69.6179 358.438> -163 124<451.25 833.45> 744 20G<862 909.5>
VStem: 834 124<-36.9023 151.401 390.053 742.784>
LayerCount: 2
Fore
SplineSet
896 764 m 0x70
 923 764 952 741 952 715 c 0
 952 484 958 253 958 21 c 1
 958 -7.05 961.3275 -35.705 961.3275 -63.96675 c 0
 961.3275 -87.09 959.1 -109.95 951 -132 c 0
 939.360088969 -158.771795371 916.20373799 -163.188148489 891.387589445 -163.188148489 c 0
 879.168811313 -163.188148489 866.547648052 -162.117490927 854.700646435 -162.117490927 c 0
 849.266352914 -162.117490927 843.994951837 -162.342769495 839 -163 c 1x70
 591 -163 343 -169 95 -169 c 0
 60.4818944474 -169 41.1519993361 -136.763798247 41.1519993361 -105.942582687 c 0
 41.1519993361 -81.4039998412 53.4046182767 -57.7623327067 80 -52 c 1xb0
 300 -52 520 -39 740 -39 c 1
 744.810344828 -37.6034482759 750.391200951 -37.1218787158 756.387618394 -37.1218787158 c 0
 769.712990488 -37.1218787158 785.090517241 -39.5 798.625 -39.5 c 0
 818.25 -39.5 834 -34.5 834 -10 c 0
 834 199 834 408 834 618 c 0
 834 625.8 833.865 634.3425 833.865 643.259625 c 0
 833.865 693.79 838.2 756.35 896 764 c 0x70
508 426 m 0
 564 426 614 381 624 326 c 0
 626.051384114 317.553124238 627.025241993 309.004320318 627.025241993 300.501183866 c 0
 627.025241993 238.538083054 575.31178493 179 512 179 c 1
 507.425654586 178.40334625 502.873284214 178.114343103 498.360079509 178.114343103 c 0
 434.795538333 178.114343103 379 235.441755692 379 298 c 0
 379 368 438 426 508 426 c 0
EndSplineSet
Validated: 1
EndChar

StartChar: t
Encoding: 116 116 35
Width: 1000
VWidth: 0
Flags: HW
HStem: -169 117<69.6179 358.438> -163 124<451.25 833.45> 744 20G<862 909.5>
VStem: 834 124<-36.9023 151.401 390.053 742.784>
LayerCount: 2
Fore
SplineSet
896 764 m 0x70
 923 764 952 741 952 715 c 0
 952 484 958 253 958 21 c 1
 958 -7.05 961.3275 -35.705 961.3275 -63.96675 c 0
 961.3275 -87.09 959.1 -109.95 951 -132 c 0
 939.360088969 -158.771795371 916.20373799 -163.188148489 891.387589445 -163.188148489 c 0
 879.168811313 -163.188148489 866.547648052 -162.117490927 854.700646435 -162.117490927 c 0
 849.266352914 -162.117490927 843.994951837 -162.342769495 839 -163 c 1x70
 591 -163 343 -169 95 -169 c 0
 60.4818944474 -169 41.1519993361 -136.763798247 41.1519993361 -105.942582687 c 0
 41.1519993361 -81.4039998412 53.4046182767 -57.7623327067 80 -52 c 1xb0
 300 -52 520 -39 740 -39 c 1
 744.810344828 -37.6034482759 750.391200951 -37.1218787158 756.387618394 -37.1218787158 c 0
 769.712990488 -37.1218787158 785.090517241 -39.5 798.625 -39.5 c 0
 818.25 -39.5 834 -34.5 834 -10 c 0
 834 199 834 408 834 618 c 0
 834 625.8 833.865 634.3425 833.865 643.259625 c 0
 833.865 693.79 838.2 756.35 896 764 c 0x70
508 426 m 0
 564 426 614 381 624 326 c 0
 626.051384114 317.553124238 627.025241993 309.004320318 627.025241993 300.501183866 c 0
 627.025241993 238.538083054 575.31178493 179 512 179 c 1
 507.425654586 178.40334625 502.873284214 178.114343103 498.360079509 178.114343103 c 0
 434.795538333 178.114343103 379 235.441755692 379 298 c 0
 379 368 438 426 508 426 c 0
EndSplineSet
Validated: 1
EndChar

StartChar: one
Encoding: 49 49 36
Width: 1000
VWidth: 0
Flags: H
HStem: -168 21G<485.5 507>
VStem: 412 163<-24.8106 629.054>
LayerCount: 2
Fore
SplineSet
452 -157 m 0
 413 -133 412 -148 412 240 c 0
 412 259 412 279 412 300 c 0
 412 334 412 368.341796875 412 397.341796875 c 0
 412 759.341796875 414 741 460 763 c 0
 474 770 482 773 492 773 c 0
 497 773 503 772 511 770 c 0
 538 763 558 743 568 717 c 0
 573 705 575 568 575 301 c 0
 575 -73 574 -98 563 -122 c 0
 550 -151 522 -168 492 -168 c 0
 479 -168 465 -165 452 -157 c 0
EndSplineSet
Validated: 1
EndChar

StartChar: zero
Encoding: 48 48 37
Width: 1000
VWidth: 0
Flags: H
HStem: -170 21G<370.5 629.5> 750 20G<370.5 629.5> 750 20G<370.5 629.5>
VStem: 30 940<160.449 439.551>
LayerCount: 2
Fore
SplineSet
500 770 m 0xd0
 759 770 970 559 970 300 c 0
 970 41 759 -170 500 -170 c 0
 241 -170 30 41 30 300 c 0
 30 559 241 770 500 770 c 0xd0
EndSplineSet
Validated: 1
EndChar

StartChar: four
Encoding: 52 52 38
Width: 1000
VWidth: 0
HStem: -168.999 21.5492G<251.619 259.926 727.217 744.759> 748 20G<257.5 271.5 725.5 749.5>
VStem: 420 163<260.931 340.157>
LayerCount: 2
Fore
SplineSet
224 -149 m 0
 209 -134 202 -120 202 -104 c 0
 202 -93 206 -80 214 -65 c 0
 220 -52 269 34 323 127 c 0
 377 219 420 297 420 301 c 0
 420 304 372 389 314 491 c 0
 255 592 204 685 204 696 c 0
 204 719 214 752 233 762 c 0
 241 766 252 768 263 768 c 0
 280 768 299 763 309 754 c 0
 317 746 363 672 411 589 c 0
 472 483 497 444 504 444 c 0
 504 444 505 445 505 445 c 0
 509 449 548 516 593 593 c 0
 637 670 681 741 690 751 c 0
 702 763 718 769 733 769 c 0
 766 769 798 744 798 707 c 0
 798 688 778 648 696 505 c 0
 639 407 590 322 585 315 c 0
 584 313 583 311 583 308 c 0
 583 293 602.928502967 256.443689868 687 111 c 0
 770.374542716 -32.6284139221 797.789065763 -82.4992510308 797.789065763 -111.523900288 c 0
 797.789065763 -123.925964138 792.783713356 -132.521924328 785 -143 c 0
 772.311798921 -159.917601438 754.03365178 -168.450283782 735.48503555 -168.450283782 c 0
 718.948552895 -168.450283782 702.197098741 -161.668423697 689 -148 c 0
 680 -140 636 -67 589 14 c 0
 543 95 503 162 501 162 c 0
 499 162 459 96 413 16 c 0
 367 -64 323 -137 314 -146 c 0
 303 -159 290 -164.862304688 272 -167.862304688 c 0
 266.38771381 -168.563840462 261.869099713 -168.999487888 257.983807651 -168.999487888 c 0
 245.254300262 -168.999487888 239 -164 224 -149 c 0
EndSplineSet
Validated: 1
EndChar

StartChar: plus
Encoding: 43 43 39
Width: 1000
VWidth: 0
Flags: H
HStem: -170 120<311 695.937> 443 20G<491.5 510>
LayerCount: 2
Fore
SplineSet
172 -170 m 0
 155 -163 134 -131 134 -113 c 0
 134 -103 165 -43 211 38 c 0
 402 370 443 439 455 451 c 0
 464 459 482 463 501 463 c 0
 519 463 537 459 546 452 c 0
 553 446 628 321 712 174 c 0
 830 -30 866 -94 866 -124 c 0
 866 -137 859 -144 850 -153 c 0
 842 -162 831 -170 827 -170 c 0
 754 -170 491 -170 321 -170 c 0
 264.333333333 -170 218.333333333 -170.444444444 193.074074074 -170.444444444 c 0
 180.444444444 -170.444444444 173 -170.333333333 172 -170 c 0
696 -45 m 0
 684 -17 506 285 501 285 c 0
 494 284 316 -22 311 -39 c 0
 311 -40 311 -40 311 -41 c 0
 311 -49 333 -50 503 -50 c 0
 609 -50 696 -48 696 -45 c 0
EndSplineSet
Validated: 1
EndChar

StartChar: slash
Encoding: 47 47 40
Width: 1000
VWidth: 0
Flags: H
HStem: -114 247<426.938 565.729> 240 129<72 785.255> 467 247<426.938 565.855>
VStem: 372 247<-57.2734 78.3613 523.98 659.801>
LayerCount: 2
Fore
SplineSet
453 -108 m 0
 408 -93 372 -38 372 10 c 0
 372 15 371 20 372 24 c 0
 381 79 414 115 466 129 c 0
 477 132 487 133 498 133 c 0
 565 133 619 77 619 10 c 0
 619 -2 618 -14 614 -26 c 0
 600 -81 550 -114 495 -114 c 0
 481 -114 467 -112 453 -108 c 0
53 256 m 1
 37 270 29 287 29 305 c 0
 29 315 31 324 36 333 c 0
 54 366 45 369 313 369 c 0
 366 369 431 369 509 369 c 1
 935 369 l 1
 953 348 l 2
 965 335 971 320 971 305 c 0
 971 296 969 286 964 275 c 0
 948 240 958 240 497 240 c 2
 72 240 l 1
 53 256 l 1
453 474 m 0
 408 488 372 543 372 592 c 0
 372 597 371 601 372 606 c 0
 381 660 414 696 466 710 c 0
 477 713 488 714 499 714 c 0
 565 714 619 659 619 591 c 0
 619 580 618 567 614 555 c 0
 600 502 550 467 495 467 c 0
 481 467 467 469 453 474 c 0
EndSplineSet
Validated: 1
EndChar

StartChar: equal
Encoding: 61 61 41
Width: 1000
VWidth: 0
Flags: H
HStem: 67 130<216.641 928> 403 130<181.775 950.905>
LayerCount: 2
Fore
SplineSet
63 75 m 0
 40.7451963258 87.2401420208 29.0150137413 109.385809773 29.0150137413 131.7925113 c 0
 29.0150137413 149.658825622 36.472953215 167.691102756 52 181 c 2
 71 197 l 1
 500 197 l 1
 928 197 l 1
 949 175 l 2
 963.518518519 160.481481481 970.777777778 145.694101509 970.777777778 130.777269725 c 0
 970.777777778 116.925925926 964.518518519 102.962962963 952 89 c 2
 934 67 l 1
 507 67 l 1
 138 67 78 67 63 75 c 0
53 418 m 1
 43 427 33 441 30 450 c 0
 29.233610751 453.525390545 28.8666211891 457.285722083 28.8666211891 461.176561988 c 0
 28.8666211891 482.669950201 40.065556996 508.145889897 57 520 c 0
 73 530 98 533 477 533 c 0
 698 533 892 533 907 531 c 0
 943 526 971 500 971 472 c 0
 971 448 956 418 940 409 c 0
 932 405 781 403 500 403 c 2
 71 403 l 1
 53 418 l 1
EndSplineSet
Validated: 1
EndChar

StartChar: asterisk
Encoding: 42 42 42
Width: 1000
VWidth: 0
Flags: H
HStem: -171 21G<324 342 660.5 675> 67 131<47.2774 264 399.12 602 736 928> 401 136<49.8747 261 399 599 736 947.825> 751 20G<329.5 341.5 658 671.5> 751 20G<329.5 341.5 658 671.5>
VStem: 264 135<-149.55 67 199.993 401 537 750.125> 602 132<-128 67 198 401 536 751.719>
LayerCount: 2
Fore
SplineSet
294 -158 m 0xf6
 271 -140 264 -110 264 -16 c 2
 264 67 l 1
 173 67 l 2
 72 67 53 72 36 105 c 0
 31 114 29 124 29 133 c 0
 29 151 37 169 53 182 c 0
 71 198 74 198 168 198 c 2
 261 198 l 1
 261 300 l 1
 261 401 l 1
 163 401 l 1
 71 401 64 408 50 422 c 0
 36 435 29 450 29 467 c 0
 29 474 31 481 33 489 c 0
 46 527 62 537 169 537 c 1
 264 537 l 1
 264 631 l 1
 264 738 273 754 311 767 c 0
 319 769 326 770 333 770 c 0
 350 770 365 765 378 751 c 0
 392 737 396 729 396 637 c 1
 396 535 l 1
 500 535 l 1
 602 535 l 1
 602 632 l 2
 602 726 602 729 618 747 c 0
 631 763 649 770 667 770 c 0
 676 770 686 769 695 764 c 0
 728 747 733 728 733 627 c 2
 733 536 l 1
 816 536 l 2
 862 536 909 533 922 529 c 0
 950 521 971 497 971 471 c 0
 971 445 950 412 932 408 c 0
 924 406 877 401 827 401 c 1
 736 401 l 1
 736 300 l 1
 736 198 l 1
 831 198 l 1
 928 198 l 1
 949 177 l 2
 964 162 971 147 971 132 c 0
 971 118 965 104 952 90 c 2
 934 70 l 1
 834 70 l 1
 734 70 l 1
 734 -34 l 1
 734 -134 l 1
 710 -152 l 2
 696 -165 682 -171 668 -171 c 0
 653 -171 638 -164 623 -149 c 2
 602 -128 l 1
 602 -31 l 1
 602 67 l 1
 500 67 l 1
 399 67 l 1
 399 -27 l 1
 399 -77 394 -124 392 -132 c 0
 388 -150 355 -171 329 -171 c 0
 319 -171 303 -165 294 -158 c 0xf6
599 300 m 1
 599 401 l 1
 499 401 l 1
 399 401 l 1
 399 308 l 1
 399 266 398 229 398 214 c 0
 398 210 398 207 398 206 c 0
 401 200 426 198 502 198 c 2
 602 198 l 1
 599 300 l 1
EndSplineSet
Validated: 1
EndChar

StartChar: hyphen
Encoding: 45 45 43
Width: 1000
VWidth: 0
HStem: 355 119<309.036 692.844>
VStem: 135 174<342.5 431.5>
LayerCount: 2
Fore
SplineSet
466 -153 m 0
 448 -144 421 -101 290 127 c 0
 172 332 135 394 135 425 c 0
 135 438 142 445 152 455 c 2
 171 474 l 1
 500 474 l 1
 829 474 l 1
 847 455 l 2
 857 445 865 438 865 424 c 0
 865 393 829 331 713 130 c 0
 629 -15 555 -140 548 -146 c 0
 538 -156 521 -162 503 -162 c 0
 490 -162 477 -159 466 -153 c 0
601 182 m 0
 652 271 693 346 693 350 c 0
 691 353 604 355 499 355 c 0
 358 355 309 353 309 348 c 0
 309 337 497 15 502 15 c 0
 504 17 548 92 601 182 c 0
EndSplineSet
Validated: 1
EndChar

StartChar: parenleft
Encoding: 40 40 44
Width: 1000
VWidth: 0
VStem: 363 90<138.622 437.885>
LayerCount: 2
Fore
SplineSet
559 783 m 0
 566 792 577 796 589 796 c 0
 599 796 610 793 619 785 c 0
 631 775 637 761 637 748 c 0
 637 741 635 734 631 728 c 0
 583 665 540 600 509 530 c 0
 492 493 479 456 469 417 c 0
 460 381 453 344 453 306 c 0
 453 269 454 231 461 195 c 0
 468 156 480 118 495 81 c 0
 512 41 533 3 557 -34 c 0
 578 -66 601 -96 625 -126 c 0
 630 -132 633 -140 633 -148 c 0
 633 -160 627 -174 616 -184 c 0
 606 -192 595 -196 584 -196 c 0
 573 -196 563 -192 556 -184 c 0
 530 -152 504 -119 481 -84 c 0
 454 -43 431 1 412 47 c 2
 394 89 381 133 372 178 c 0
 364 222 363 266 363 310 c 0
 363 354 371 397 382 439 c 2
 393 483 408 526 426 567 c 0
 462 645 508 717 559 783 c 0
EndSplineSet
Validated: 1
EndChar

StartChar: parenright
Encoding: 41 41 45
Width: 1000
VWidth: 0
VStem: 547 90<162.115 461.378>
LayerCount: 2
Fore
SplineSet
375 726 m 0
 370 732 367 740 367 748 c 0
 367 760 373 774 384 784 c 0
 394 792 405 796 416 796 c 0
 427 796 437 792 444 784 c 0
 470 752 496 719 519 684 c 0
 546 643 569 599 588 553 c 0
 606 511 619 467 628 422 c 0
 636 378 637 334 637 290 c 0
 637 246 629 203 618 161 c 0
 607 117 592 74 574 33 c 0
 538 -45 492 -117 441 -183 c 0
 434 -192 423 -196 411 -196 c 0
 401 -196 390 -193 381 -185 c 0
 369 -175 363 -161 363 -148 c 0
 363 -141 365 -134 369 -128 c 0
 417 -65 460 0 491 70 c 0
 508 107 521 144 531 183 c 0
 540 219 547 256 547 294 c 0
 547 331 546 369 539 405 c 0
 532 444 520 482 505 519 c 0
 488 559 467 597 443 634 c 0
 422 666 399 696 375 726 c 0
EndSplineSet
Validated: 1
EndChar

StartChar: comma
Encoding: 44 44 46
Width: 1000
VWidth: 0
Flags: H
HStem: -193 311<483.227 512.677>
VStem: 417 166<-17.2812 90.871>
LayerCount: 2
Fore
SplineSet
500 118 m 0
 546 118 583 81 583 35 c 0
 583 33 583 29 582 26 c 0
 582 24 582 22 581 19 c 0
 580 12 576 2 573 -4 c 2
 512 -174 l 2
 508 -184 497 -193 485 -193 c 0
 483 -193 482 -193 480 -193 c 2
 456 -187 l 2
 446 -185 439 -178 439 -168 c 0
 439 -166 440 -162 441 -159 c 2
 482 -46 l 1
 446 -37 417 -1 417 35 c 0
 417 81 454 118 500 118 c 0
EndSplineSet
Validated: 1
EndChar

StartChar: period
Encoding: 46 46 47
Width: 1000
VWidth: 0
HStem: -128 166<444.129 555.871>
VStem: 417 166<-100.871 10.871>
LayerCount: 2
Fore
SplineSet
417 -45 m 0
 417 1 454 38 500 38 c 0
 546 38 583 1 583 -45 c 0
 583 -91 546 -128 500 -128 c 0
 454 -128 417 -91 417 -45 c 0
EndSplineSet
Validated: 1
EndChar

StartChar: bracketleft
Encoding: 91 91 48
Width: 1000
VWidth: 0
Flags: H
HStem: 549 20G<536.5 544 696 703.5>
LayerCount: 2
Fore
SplineSet
540 569 m 0
 548 569 555 566 561 561 c 0
 566.5 555 569.25 547.5 569.25 540 c 0
 569.25 532.5 566.5 525 561 519 c 2
 341 300 l 1
 561 81 l 2
 566.5 75 569.25 67.5 569.25 60 c 0
 569.25 52.5 566.5 45 561 39 c 0
 555 33.5 547.5 30.75 540 30.75 c 0
 532.5 30.75 525 33.5 519 39 c 2
 279 279 l 2
 273.5 285 270.75 292.5 270.75 300 c 0
 270.75 307.5 273.5 315 279 321 c 0
 280 321 280 321 281 322 c 0
 519 561 l 2
 525 566 533 569 540 569 c 0
700 569 m 0
 707 569 715 566 721 561 c 0
 726.5 555 729.25 547.5 729.25 540 c 0
 729.25 532.5 726.5 525 721 519 c 2
 501 300 l 1
 721 81 l 2
 726.5 75 729.25 67.5 729.25 60 c 0
 729.25 52.5 726.5 45 721 39 c 0
 715 33.5 707.5 30.75 700 30.75 c 0
 692.5 30.75 685 33.5 679 39 c 2
 439 279 l 2
 433.5 285 430.75 292.5 430.75 300 c 0
 430.75 307.5 433.5 315 439 321 c 0
 440 321 440 321 440 322 c 0
 679 561 l 2
 685 566 692 569 700 569 c 0
EndSplineSet
Validated: 1
EndChar

StartChar: bracketright
Encoding: 93 93 49
Width: 1000
VWidth: 0
Flags: H
LayerCount: 2
Fore
SplineSet
460 31 m 0
 452 31 445 34 439 39 c 0
 433.5 45 430.75 52.5 430.75 60 c 0
 430.75 67.5 433.5 75 439 81 c 2
 659 300 l 1
 439 519 l 2
 433.5 525 430.75 532.5 430.75 540 c 0
 430.75 547.5 433.5 555 439 561 c 0
 445 566.5 452.5 569.25 460 569.25 c 0
 467.5 569.25 475 566.5 481 561 c 2
 721 321 l 2
 726.5 315 729.25 307.5 729.25 300 c 0
 729.25 292.5 726.5 285 721 279 c 0
 720 279 720 279 719 278 c 0
 481 39 l 2
 475 34 467 31 460 31 c 0
300 31 m 0
 293 31 285 34 279 39 c 0
 273.5 45 270.75 52.5 270.75 60 c 0
 270.75 67.5 273.5 75 279 81 c 2
 499 300 l 1
 279 519 l 2
 273.5 525 270.75 532.5 270.75 540 c 0
 270.75 547.5 273.5 555 279 561 c 0
 285 566.5 292.5 569.25 300 569.25 c 0
 307.5 569.25 315 566.5 321 561 c 2
 561 321 l 2
 566.5 315 569.25 307.5 569.25 300 c 0
 569.25 292.5 566.5 285 561 279 c 0
 560 279 560 279 560 278 c 0
 321 39 l 2
 315 34 308 31 300 31 c 0
EndSplineSet
Validated: 1
EndChar

StartChar: X
Encoding: 88 88 78
Width: 1000
VWidth: 0
Flags: W
HStem: -168.999 21.5492G<251.619 259.926 727.217 744.759> 748 20G<257.5 271.5 725.5 749.5>
VStem: 420 163<260.931 340.157>
LayerCount: 2
Fore
SplineSet
224 -149 m 0
 209 -134 202 -120 202 -104 c 0
 202 -93 206 -80 214 -65 c 0
 220 -52 269 34 323 127 c 0
 377 219 420 297 420 301 c 0
 420 304 372 389 314 491 c 0
 255 592 204 685 204 696 c 0
 204 719 214 752 233 762 c 0
 241 766 252 768 263 768 c 0
 280 768 299 763 309 754 c 0
 317 746 363 672 411 589 c 0
 472 483 497 444 504 444 c 0
 504 444 505 445 505 445 c 0
 509 449 548 516 593 593 c 0
 637 670 681 741 690 751 c 0
 702 763 718 769 733 769 c 0
 766 769 798 744 798 707 c 0
 798 688 778 648 696 505 c 0
 639 407 590 322 585 315 c 0
 584 313 583 311 583 308 c 0
 583 293 602.928502967 256.443689868 687 111 c 0
 770.374542716 -32.6284139221 797.789065763 -82.4992510308 797.789065763 -111.523900288 c 0
 797.789065763 -123.925964138 792.783713356 -132.521924328 785 -143 c 0
 772.311798921 -159.917601438 754.03365178 -168.450283782 735.48503555 -168.450283782 c 0
 718.948552895 -168.450283782 702.197098741 -161.668423697 689 -148 c 0
 680 -140 636 -67 589 14 c 0
 543 95 503 162 501 162 c 0
 499 162 459 96 413 16 c 0
 367 -64 323 -137 314 -146 c 0
 303 -159 290 -164.862304688 272 -167.862304688 c 0
 266.38771381 -168.563840462 261.869099713 -168.999487888 257.983807651 -168.999487888 c 0
 245.254300262 -168.999487888 239 -164 224 -149 c 0
EndSplineSet
EndChar

StartChar: x
Encoding: 120 120 90
Width: 1000
VWidth: 0
Flags: W
HStem: -168.999 21.5492G<251.619 259.926 727.217 744.759> 748 20G<257.5 271.5 725.5 749.5>
VStem: 420 163<260.931 340.157>
LayerCount: 2
Fore
SplineSet
224 -149 m 0
 209 -134 202 -120 202 -104 c 0
 202 -93 206 -80 214 -65 c 0
 220 -52 269 34 323 127 c 0
 377 219 420 297 420 301 c 0
 420 304 372 389 314 491 c 0
 255 592 204 685 204 696 c 0
 204 719 214 752 233 762 c 0
 241 766 252 768 263 768 c 0
 280 768 299 763 309 754 c 0
 317 746 363 672 411 589 c 0
 472 483 497 444 504 444 c 0
 504 444 505 445 505 445 c 0
 509 449 548 516 593 593 c 0
 637 670 681 741 690 751 c 0
 702 763 718 769 733 769 c 0
 766 769 798 744 798 707 c 0
 798 688 778 648 696 505 c 0
 639 407 590 322 585 315 c 0
 584 313 583 311 583 308 c 0
 583 293 602.928502967 256.443689868 687 111 c 0
 770.374542716 -32.6284139221 797.789065763 -82.4992510308 797.789065763 -111.523900288 c 0
 797.789065763 -123.925964138 792.783713356 -132.521924328 785 -143 c 0
 772.311798921 -159.917601438 754.03365178 -168.450283782 735.48503555 -168.450283782 c 0
 718.948552895 -168.450283782 702.197098741 -161.668423697 689 -148 c 0
 680 -140 636 -67 589 14 c 0
 543 95 503 162 501 162 c 0
 499 162 459 96 413 16 c 0
 367 -64 323 -137 314 -146 c 0
 303 -159 290 -164.862304688 272 -167.862304688 c 0
 266.38771381 -168.563840462 261.869099713 -168.999487888 257.983807651 -168.999487888 c 0
 245.254300262 -168.999487888 239 -164 224 -149 c 0
EndSplineSet
EndChar

StartChar: guillemotleft
Encoding: 171 171 95
Width: 1000
VWidth: 0
Flags: W
HStem: 549 20G<536.5 544 696 703.5>
LayerCount: 2
Fore
SplineSet
540 569 m 0
 548 569 555 566 561 561 c 0
 566.5 555 569.25 547.5 569.25 540 c 0
 569.25 532.5 566.5 525 561 519 c 2
 341 300 l 1
 561 81 l 2
 566.5 75 569.25 67.5 569.25 60 c 0
 569.25 52.5 566.5 45 561 39 c 0
 555 33.5 547.5 30.75 540 30.75 c 0
 532.5 30.75 525 33.5 519 39 c 2
 279 279 l 2
 273.5 285 270.75 292.5 270.75 300 c 0
 270.75 307.5 273.5 315 279 321 c 0
 280 321 280 321 281 322 c 0
 519 561 l 2
 525 566 533 569 540 569 c 0
700 569 m 0
 707 569 715 566 721 561 c 0
 726.5 555 729.25 547.5 729.25 540 c 0
 729.25 532.5 726.5 525 721 519 c 2
 501 300 l 1
 721 81 l 2
 726.5 75 729.25 67.5 729.25 60 c 0
 729.25 52.5 726.5 45 721 39 c 0
 715 33.5 707.5 30.75 700 30.75 c 0
 692.5 30.75 685 33.5 679 39 c 2
 439 279 l 2
 433.5 285 430.75 292.5 430.75 300 c 0
 430.75 307.5 433.5 315 439 321 c 0
 440 321 440 321 440 322 c 0
 679 561 l 2
 685 566 692 569 700 569 c 0
EndSplineSet
EndChar

StartChar: guillemotright
Encoding: 187 187 96
Width: 1000
VWidth: 0
Flags: HW
LayerCount: 2
Fore
SplineSet
460 31 m 0
 452 31 445 34 439 39 c 0
 433.5 45 430.75 52.5 430.75 60 c 0
 430.75 67.5 433.5 75 439 81 c 2
 659 300 l 1
 439 519 l 2
 433.5 525 430.75 532.5 430.75 540 c 0
 430.75 547.5 433.5 555 439 561 c 0
 445 566.5 452.5 569.25 460 569.25 c 0
 467.5 569.25 475 566.5 481 561 c 2
 721 321 l 2
 726.5 315 729.25 307.5 729.25 300 c 0
 729.25 292.5 726.5 285 721 279 c 0
 720 279 720 279 719 278 c 0
 481 39 l 2
 475 34 467 31 460 31 c 0
300 31 m 0
 293 31 285 34 279 39 c 0
 273.5 45 270.75 52.5 270.75 60 c 0
 270.75 67.5 273.5 75 279 81 c 2
 499 300 l 1
 279 519 l 2
 273.5 525 270.75 532.5 270.75 540 c 0
 270.75 547.5 273.5 555 279 561 c 0
 285 566.5 292.5 569.25 300 569.25 c 0
 307.5 569.25 315 566.5 321 561 c 2
 561 321 l 2
 566.5 315 569.25 307.5 569.25 300 c 0
 569.25 292.5 566.5 285 561 279 c 0
 560 279 560 279 560 278 c 0
 321 39 l 2
 315 34 308 31 300 31 c 0
EndSplineSet
EndChar

StartChar: multiply
Encoding: 215 215 198
Width: 1000
VWidth: 0
Flags: W
HStem: -171 21G<324 342 660.5 675> 67 131<47.2774 264 399.12 602 736 928> 401 136<49.8747 261 399 599 736 947.825> 751 20G<329.5 341.5 658 671.5> 751 20G<329.5 341.5 658 671.5>
VStem: 264 135<-149.55 67 199.993 401 537 750.125> 602 132<-128 67 198 401 536 751.719>
LayerCount: 2
Fore
SplineSet
294 -158 m 0xf6
 271 -140 264 -110 264 -16 c 2
 264 67 l 1
 173 67 l 2
 72 67 53 72 36 105 c 0
 31 114 29 124 29 133 c 0
 29 151 37 169 53 182 c 0
 71 198 74 198 168 198 c 2
 261 198 l 1
 261 300 l 1
 261 401 l 1
 163 401 l 1
 71 401 64 408 50 422 c 0
 36 435 29 450 29 467 c 0
 29 474 31 481 33 489 c 0
 46 527 62 537 169 537 c 1
 264 537 l 1
 264 631 l 1
 264 738 273 754 311 767 c 0
 319 769 326 770 333 770 c 0
 350 770 365 765 378 751 c 0
 392 737 396 729 396 637 c 1
 396 535 l 1
 500 535 l 1
 602 535 l 1
 602 632 l 2
 602 726 602 729 618 747 c 0
 631 763 649 770 667 770 c 0
 676 770 686 769 695 764 c 0
 728 747 733 728 733 627 c 2
 733 536 l 1
 816 536 l 2
 862 536 909 533 922 529 c 0
 950 521 971 497 971 471 c 0
 971 445 950 412 932 408 c 0
 924 406 877 401 827 401 c 1
 736 401 l 1
 736 300 l 1
 736 198 l 1
 831 198 l 1
 928 198 l 1
 949 177 l 2
 964 162 971 147 971 132 c 0
 971 118 965 104 952 90 c 2
 934 70 l 1
 834 70 l 1
 734 70 l 1
 734 -34 l 1
 734 -134 l 1
 710 -152 l 2
 696 -165 682 -171 668 -171 c 0
 653 -171 638 -164 623 -149 c 2
 602 -128 l 1
 602 -31 l 1
 602 67 l 1
 500 67 l 1
 399 67 l 1
 399 -27 l 1
 399 -77 394 -124 392 -132 c 0
 388 -150 355 -171 329 -171 c 0
 319 -171 303 -165 294 -158 c 0xf6
599 300 m 1
 599 401 l 1
 499 401 l 1
 399 401 l 1
 399 308 l 1
 399 266 398 229 398 214 c 0
 398 210 398 207 398 206 c 0
 401 200 426 198 502 198 c 2
 602 198 l 1
 599 300 l 1
EndSplineSet
EndChar

StartChar: divide
Encoding: 247 247 199
Width: 1000
VWidth: 0
Flags: W
HStem: -114 247<426.938 565.729> 240 129<72 785.255> 467 247<426.938 565.855>
VStem: 372 247<-57.2734 78.3613 523.98 659.801>
LayerCount: 2
Fore
SplineSet
453 -108 m 0
 408 -93 372 -38 372 10 c 0
 372 15 371 20 372 24 c 0
 381 79 414 115 466 129 c 0
 477 132 487 133 498 133 c 0
 565 133 619 77 619 10 c 0
 619 -2 618 -14 614 -26 c 0
 600 -81 550 -114 495 -114 c 0
 481 -114 467 -112 453 -108 c 0
53 256 m 1
 37 270 29 287 29 305 c 0
 29 315 31 324 36 333 c 0
 54 366 45 369 313 369 c 0
 366 369 431 369 509 369 c 1
 935 369 l 1
 953 348 l 2
 965 335 971 320 971 305 c 0
 971 296 969 286 964 275 c 0
 948 240 958 240 497 240 c 2
 72 240 l 1
 53 256 l 1
453 474 m 0
 408 488 372 543 372 592 c 0
 372 597 371 601 372 606 c 0
 381 660 414 696 466 710 c 0
 477 713 488 714 499 714 c 0
 565 714 619 659 619 591 c 0
 619 580 618 567 614 555 c 0
 600 502 550 467 495 467 c 0
 481 467 467 469 453 474 c 0
EndSplineSet
EndChar

